# xmcd
#
# Track frame offsets:
#	150
#	15738
#	30801
#	40094
#	52057
#	72307
#	88307
#	101958
#	114566
#	125667
#	138469
#	150412
#	163983
#	177369
#	189673
#	205012
#	222633
#	240658
#	253967
#	269247
#	282323
#	300132
#	320637
#	332966
#
# Disc length: 4614 seconds
#
# Revision: 0
# Processed by: cddbd v1.5.2PL0 Copyright (c) Steve Scherf et al.
# Submitted via: audiograbber 1.83.01
#
DISCID=75120418
DTITLE=Mikel - Mikel´s Country Musik
DYEAR=1900
DGENRE=Country
TTITLE0=Blue Moon of Kentucky
TTITLE1=Thank God for the Radio
TTITLE2=Truck drivin Man
TTITLE3=Chatahoochee
TTITLE4=Coward of the Country
TTITLE5=Ich bin so gern ein Cowboy
TTITLE6=Take it Easy altes Haus
TTITLE7=500 Miles
TTITLE8=Daddy sang Bass
TTITLE9=Games People Play
TTITLE10=I walk the Line
TTITLE11=Amarillo by Morning Mixdown
TTITLE12=Dieseltruck
TTITLE13=Singin the Blues 
TTITLE14=Mama dont let you Baby
TTITLE15=Ghostriders in the Sky
TTITLE16=Unchain Melody 
TTITLE17=Folsom Prison Blues
TTITLE18=Sauerland
TTITLE19=Ring of Fire
TTITLE20=If tomorrow never comes (deutsch)
TTITLE21=Der Tag ist mein Freund
TTITLE22=A thing called love
TTITLE23=Honky Tonk Superman
EXTD=
EXTT0=
EXTT1=
EXTT2=
EXTT3=
EXTT4=
EXTT5=
EXTT6=
EXTT7=
EXTT8=
EXTT9=
EXTT10=
EXTT11=
EXTT12=
EXTT13=
EXTT14=
EXTT15=
EXTT16=
EXTT17=
EXTT18=
EXTT19=
EXTT20=
EXTT21=
EXTT22=
EXTT23=
PLAYORDER=
